<?xml version="1.0" encoding="UTF-8" standalone="no"?>
<svg width="629px" height="669px" viewBox="0 0 629 669" version="1.1" xmlns="http://www.w3.org/2000/svg" xmlns:xlink="http://www.w3.org/1999/xlink">
    <defs></defs>
    <g id="Page-1" stroke="none" stroke-width="1" fill="none" fill-rule="evenodd">
        <g id="Artboard-3-Copy" transform="translate(-560.000000, -1608.000000)">
            <g id="life-cycle" transform="translate(560.000000, 1609.000000)">
                <g id="Group-3" transform="translate(283.000000, 0.000000)">
                    <g id="1482177903_298" transform="translate(8.000000, 0.000000)" stroke-width="3" stroke="#F31369">
                        <g id="Layer_1">
                            <g id="Group" transform="translate(15.000000, 52.000000)">
                                <path d="M0.217,0.455 L0.217,6.186" id="Shape"></path>
                                <path d="M8.084,0.455 L8.084,11" id="Shape"></path>
                                <path d="M15.783,0.455 L15.783,6.186" id="Shape"></path>
                            </g>
                            <path d="M0.065,48.602 C0.065,43.807 5.292,39.811 12.252,38.891" id="Shape"></path>
                            <path d="M45.938,48.604 C45.938,43.809 40.709,39.815 33.75,38.893" id="Shape"></path>
                            <g id="Group">
                                <circle id="Oval" cx="22.947" cy="15.134" r="4.355"></circle>
                                <path d="M0.065,48.602 C0.065,37.184 4.649,27.949 10.316,27.949" id="Shape"></path>
                                <path d="M45.938,48.604 C45.938,37.186 41.352,27.952 35.686,27.949" id="Shape"></path>
                                <path d="M30.816,48.604 L15.104,48.535 C12.034,39.8 9.763,28.192 9.76,20.873 C9.763,7.895 22.973,0.899 22.973,0.899 C22.973,0.899 36.185,7.896 36.185,20.871 C36.188,28.208 33.9,39.861 30.816,48.604 Z" id="Shape"></path>
                            </g>
                        </g>
                    </g>
                    <path d="M6.64,86.856 L2.816,86.856 L2.816,77.96 L0.24,77.96 L0.24,89 L6.64,89 L6.64,86.856 Z M10.416,78.872 C10.416,78.088 9.824,77.544 8.96,77.544 C8.096,77.544 7.504,78.088 7.504,78.872 C7.504,79.672 8.096,80.2 8.96,80.2 C9.824,80.2 10.416,79.672 10.416,78.872 Z M10.24,81.112 L7.68,81.112 L7.68,89 L10.24,89 L10.24,81.112 Z M17.296,81.112 L15.52,86.104 L13.728,81.112 L11.056,81.112 L14.288,89 L16.688,89 L19.936,81.112 L17.296,81.112 Z M28.288,84.824 C28.288,82.52 26.672,80.968 24.336,80.968 C22,80.968 20.08,82.456 20.08,85.064 C20.08,87.672 21.856,89.176 24.288,89.176 C26.736,89.176 27.776,88.088 28.032,87.896 L27.024,86.568 C26.576,86.872 25.68,87.32 24.656,87.32 C23.616,87.32 22.752,86.808 22.64,85.672 L28.256,85.672 C28.256,85.672 28.288,85.208 28.288,84.824 Z M22.656,84.216 C22.688,83.464 23.232,82.632 24.288,82.632 C25.36,82.632 25.888,83.496 25.904,84.216 L22.656,84.216 Z M37.792,81.112 L35.232,81.112 L35.264,82.12 L35.232,82.12 C34.816,81.576 34.064,80.968 32.736,80.968 C30.8,80.968 29.008,82.312 29.008,84.856 C29.008,87.4 30.8,88.744 32.736,88.744 C33.968,88.744 34.736,88.248 35.216,87.624 L35.248,87.624 L35.248,87.88 C35.248,88.584 35.04,89.144 34.768,89.448 C34.496,89.736 33.968,90.072 32.912,90.072 C31.856,90.072 30.656,89.528 30.192,89.176 L29.136,90.888 C29.68,91.288 31.136,92.056 32.96,92.056 C34.768,92.056 35.824,91.528 36.592,90.808 C37.36,90.088 37.792,89.096 37.792,87.4 L37.792,81.112 Z M35.312,84.872 C35.312,85.96 34.608,86.792 33.472,86.792 C32.336,86.792 31.616,85.96 31.616,84.872 C31.616,83.8 32.336,82.968 33.472,82.968 C34.608,82.968 35.312,83.8 35.312,84.872 Z M46.592,84.552 C46.592,83.224 46.256,82.456 45.648,81.88 C45.024,81.304 44.176,80.968 42.704,80.968 C41.232,80.968 40,81.432 39.328,81.768 L40,83.432 C40.4,83.176 41.408,82.728 42.416,82.728 C43.44,82.728 44.032,83.16 44.032,83.992 L44.032,84.168 L42.048,84.248 C40.592,84.312 38.976,84.904 38.976,86.664 C38.976,88.424 40.448,89.176 41.84,89.176 C43.12,89.176 43.76,88.504 44.096,88.168 L44.144,89 L46.592,89 L46.592,84.552 Z M44.048,86.824 C43.888,87.096 43.424,87.544 42.736,87.544 C42.032,87.544 41.536,87.176 41.536,86.568 C41.536,85.976 42,85.64 42.784,85.608 L44.048,85.528 L44.048,86.824 Z M55.92,84.344 C55.92,82.44 55.328,80.968 53.04,80.968 C51.904,80.968 51.184,81.544 50.752,82.248 L50.72,82.248 L50.736,81.112 L48.176,81.112 L48.176,89 L50.736,89 L50.736,85.096 C50.736,83.96 51.04,83.064 52.144,83.064 C53.2,83.064 53.36,83.848 53.36,84.888 L53.36,89 L55.92,89 L55.92,84.344 Z M65.888,81.112 L63.328,81.112 L63.36,82.12 L63.328,82.12 C62.912,81.576 62.16,80.968 60.832,80.968 C58.896,80.968 57.104,82.312 57.104,84.856 C57.104,87.4 58.896,88.744 60.832,88.744 C62.064,88.744 62.832,88.248 63.312,87.624 L63.344,87.624 L63.344,87.88 C63.344,88.584 63.136,89.144 62.864,89.448 C62.592,89.736 62.064,90.072 61.008,90.072 C59.952,90.072 58.752,89.528 58.288,89.176 L57.232,90.888 C57.776,91.288 59.232,92.056 61.056,92.056 C62.864,92.056 63.92,91.528 64.688,90.808 C65.456,90.088 65.888,89.096 65.888,87.4 L65.888,81.112 Z M63.408,84.872 C63.408,85.96 62.704,86.792 61.568,86.792 C60.432,86.792 59.712,85.96 59.712,84.872 C59.712,83.8 60.432,82.968 61.568,82.968 C62.704,82.968 63.408,83.8 63.408,84.872 Z" id="Livegang" fill="#262830"></path>
                </g>
                <g id="Group-2" transform="translate(543.000000, 208.000000)" fill="#262830">
                    <path d="M12.408,6.496 C12.408,2.928 9.832,0.784 6.552,0.784 C3.272,0.784 0.696,2.928 0.696,6.496 C0.696,10.064 3.272,12.192 6.552,12.192 C9.832,12.192 12.408,10.064 12.408,6.496 Z M9.784,6.432 C9.784,8.544 8.392,9.888 6.552,9.888 C4.712,9.888 3.32,8.544 3.32,6.432 C3.32,4.32 4.712,2.992 6.552,2.992 C8.392,2.992 9.784,4.336 9.784,6.432 Z M21.448,7.344 C21.448,5.44 20.856,3.968 18.568,3.968 C17.432,3.968 16.712,4.544 16.28,5.248 L16.248,5.248 L16.264,4.112 L13.704,4.112 L13.704,12 L16.264,12 L16.264,8.096 C16.264,6.96 16.568,6.064 17.672,6.064 C18.728,6.064 18.888,6.848 18.888,7.888 L18.888,12 L21.448,12 L21.448,7.344 Z M31.416,0.96 L28.856,0.96 L28.856,5.072 C28.6,4.688 27.8,3.968 26.36,3.968 C24.072,3.968 22.632,5.744 22.632,8.064 C22.632,10.384 24.072,12.176 26.36,12.176 C27.416,12.176 28.36,11.776 28.952,10.976 L29,10.96 L28.984,12 L31.416,12 L31.416,0.96 Z M28.936,8.032 C28.936,9.248 28.2,10.08 27.096,10.08 C25.992,10.08 25.24,9.248 25.24,8.032 C25.24,6.816 25.992,5.984 27.096,5.984 C28.2,5.984 28.936,6.816 28.936,8.032 Z M40.92,7.824 C40.92,5.52 39.304,3.968 36.968,3.968 C34.632,3.968 32.712,5.456 32.712,8.064 C32.712,10.672 34.488,12.176 36.92,12.176 C39.368,12.176 40.408,11.088 40.664,10.896 L39.656,9.568 C39.208,9.872 38.312,10.32 37.288,10.32 C36.248,10.32 35.384,9.808 35.272,8.672 L40.888,8.672 C40.888,8.672 40.92,8.208 40.92,7.824 Z M35.288,7.216 C35.32,6.464 35.864,5.632 36.92,5.632 C37.992,5.632 38.52,6.496 38.536,7.216 L35.288,7.216 Z M47.432,4.112 C47.432,4.112 47.16,3.968 46.632,3.968 C45.784,3.968 45.128,4.368 44.68,5.232 L44.648,5.232 L44.664,4.112 L42.104,4.112 L42.104,12 L44.664,12 L44.664,8.496 C44.664,7.616 44.872,7.104 45.064,6.848 C45.256,6.592 45.672,6.272 46.248,6.272 C46.696,6.272 47.032,6.384 47.176,6.464 L47.288,6.464 L47.432,4.112 Z M56.104,7.344 C56.104,5.424 55.512,3.968 53.224,3.968 C52.056,3.968 51.304,4.544 50.904,5.248 C50.904,5.248 50.92,4.384 50.92,3.584 L50.92,0.96 L48.36,0.96 L48.36,12 L50.92,12 L50.92,8.128 C50.92,6.96 51.256,6.064 52.328,6.064 C53.4,6.064 53.528,6.896 53.528,7.856 L53.528,12 L56.104,12 L56.104,7.344 Z M66.008,8.08 C66.008,5.536 64.136,3.968 61.64,3.968 C59.144,3.968 57.256,5.536 57.256,8.08 C57.256,10.624 59.144,12.176 61.64,12.176 C64.136,12.176 66.008,10.624 66.008,8.08 Z M63.432,8.032 C63.432,9.2 62.76,10.08 61.64,10.08 C60.504,10.08 59.848,9.2 59.848,8.032 C59.848,6.864 60.504,5.984 61.64,5.984 C62.76,5.984 63.432,6.864 63.432,8.032 Z M74.824,4.112 L72.264,4.112 L72.264,8.304 C72.264,9.344 71.848,10.064 70.936,10.064 C70.024,10.064 69.768,9.44 69.768,8.528 L69.768,4.112 L67.208,4.112 L67.208,8.88 C67.208,10.016 67.4,10.704 67.784,11.248 C68.184,11.776 68.904,12.176 70.04,12.176 C71.176,12.176 72.008,11.584 72.344,11.104 L72.36,12 L74.824,12 L74.824,4.112 Z M84.84,0.96 L82.28,0.96 L82.28,5.072 C82.024,4.688 81.224,3.968 79.784,3.968 C77.496,3.968 76.056,5.744 76.056,8.064 C76.056,10.384 77.496,12.176 79.784,12.176 C80.84,12.176 81.784,11.776 82.376,10.976 L82.424,10.96 L82.408,12 L84.84,12 L84.84,0.96 Z M82.36,8.032 C82.36,9.248 81.624,10.08 80.52,10.08 C79.416,10.08 78.664,9.248 78.664,8.032 C78.664,6.816 79.416,5.984 80.52,5.984 C81.624,5.984 82.36,6.816 82.36,8.032 Z" id="Onderhoud"></path>
                </g>
                <g id="1482179305_59" transform="translate(560.000000, 152.000000)" fill="#F31B6D" stroke="#F31369">
                    <g id="Layer_1">
                        <g id="Group">
                            <path d="M45.6349206,13.84 C46.2698413,9.44 42.3015873,0.4 32.9365079,0.4 C28.8888889,0.4 25.1587302,2.32 22.7777778,5.52 C15.7142857,0.56 7.85714286,5.84 7.53968254,12.56 C3.41269841,13.28 0.396825397,16.88 0.396825397,21.2 C0.396825397,26.08 4.36507937,30.32 9.92063492,30 L9.92063492,28.4 C5.79365079,29.04 1.82539683,25.04 1.98412698,21.2 C2.3015873,14 9.12698413,13.92 9.12698413,13.92 C8.57142857,6.32 17.6984127,2.08 23.0952381,7.92 C23.0952381,7.92 26.1111111,2 32.9365079,2 C40.6349206,2 44.9206349,9.36 43.968254,14.72 C43.968254,14.72 48.015873,16.64 48.015873,21.2 C48.015873,25.2 44.7619048,28.64 40.0793651,28.4 L40.0793651,30 C43.8888889,30.4 49.6031746,27.36 49.6031746,21.2 C49.6031746,18.24 48.0952381,15.44 45.6349206,13.84 Z" id="Shape"></path>
                            <path d="M35.7142857,24.08 L37.1428571,21.2 L32.9365079,16.96 L30.1587302,18.4 C29.7619048,18.24 29.3650794,18.08 29.047619,17.92 L28.015873,14.8 L22.1428571,14.8 L21.1111111,17.92 C20.7142857,18.08 20.3174603,18.24 20,18.4 L17.1428571,16.96 L12.9365079,21.2 L14.2857143,24 C14.1269841,24.4 13.968254,24.8 13.8095238,25.12 L10.7142857,26.16 L10.7142857,32.08 L13.8095238,33.12 C13.968254,33.52 14.1269841,33.92 14.2857143,34.24 L12.8571429,37.12 L17.0634921,41.36 L19.8412698,40 C20.2380952,40.16 20.6349206,40.32 20.952381,40.48 L21.984127,43.6 L27.8571429,43.6 L28.8888889,40.48 C29.2857143,40.32 29.6825397,40.16 30,40 L32.8571429,41.44 L37.0634921,37.2 L35.7142857,34.4 C35.8730159,34 36.031746,33.6 36.1904762,33.28 L39.2857143,32.24 L39.2857143,26.32 L36.1904762,25.28 C36.1111111,24.8 35.952381,24.4 35.7142857,24.08 Z M37.6984127,31.04 L35,31.92 L33.968254,34.32 L35.2380952,36.96 L32.6984127,39.52 L30.0793651,38.24 L27.6984127,39.28 L26.7460317,42 L23.0952381,42 L22.2222222,39.28 L19.8412698,38.24 L17.2222222,39.52 L14.6825397,36.96 L15.952381,34.32 L14.9206349,31.92 L12.2222222,31.04 L12.2222222,27.36 L14.9206349,26.48 L15.952381,24.08 L14.6825397,21.44 L17.2222222,18.88 L19.8412698,20.16 L22.2222222,19.12 L23.0952381,16.4 L26.7460317,16.4 L27.6984127,19.12 L30.0793651,20.16 L32.6984127,18.88 L35.2380952,21.44 L33.968254,24.08 L35,26.48 L37.6984127,27.36 L37.6984127,31.04 Z" id="Shape"></path>
                            <path d="M25,23.6 C21.9047619,23.6 19.4444444,26.08 19.4444444,29.2 C19.4444444,32.32 21.9047619,34.8 25,34.8 C28.0952381,34.8 30.5555556,32.32 30.5555556,29.2 C30.5555556,26.08 28.0952381,23.6 25,23.6 Z M25,33.2 C22.7777778,33.2 21.031746,31.44 21.031746,29.2 C21.031746,26.96 22.7777778,25.2 25,25.2 C27.2222222,25.2 28.968254,26.96 28.968254,29.2 C28.968254,31.44 27.2222222,33.2 25,33.2 Z" id="Shape"></path>
                        </g>
                    </g>
                </g>
                <g id="Group-2-Copy" transform="translate(542.000000, 511.000000)" fill="#262830">
                    <path d="M9.352,0.96 L6.76,0.96 L6.76,12 L9.352,12 L9.352,0.96 Z M18.952,7.344 C18.952,5.44 18.36,3.968 16.072,3.968 C14.936,3.968 14.216,4.544 13.784,5.248 L13.752,5.248 L13.768,4.112 L11.208,4.112 L11.208,12 L13.768,12 L13.768,8.096 C13.768,6.96 14.072,6.064 15.176,6.064 C16.232,6.064 16.392,6.848 16.392,7.888 L16.392,12 L18.952,12 L18.952,7.344 Z M25.528,0.96 C25.528,0.96 24.792,0.752 23.784,0.752 C22.792,0.752 22.04,1.072 21.576,1.568 C21.112,2.048 20.936,2.816 20.936,3.696 L20.936,4.128 L19.928,4.128 L19.928,6.064 L20.936,6.064 L20.936,12 L23.512,12 L23.512,6.064 L25.208,6.064 L25.208,4.128 L23.512,4.128 L23.512,3.616 C23.512,3.024 23.704,2.592 24.456,2.592 C24.904,2.592 25.4,2.736 25.4,2.736 L25.528,0.96 Z M34.04,8.08 C34.04,5.536 32.168,3.968 29.672,3.968 C27.176,3.968 25.288,5.536 25.288,8.08 C25.288,10.624 27.176,12.176 29.672,12.176 C32.168,12.176 34.04,10.624 34.04,8.08 Z M31.464,8.032 C31.464,9.2 30.792,10.08 29.672,10.08 C28.536,10.08 27.88,9.2 27.88,8.032 C27.88,6.864 28.536,5.984 29.672,5.984 C30.792,5.984 31.464,6.864 31.464,8.032 Z M40.616,4.112 C40.616,4.112 40.344,3.968 39.816,3.968 C38.968,3.968 38.312,4.368 37.864,5.232 L37.832,5.232 L37.848,4.112 L35.288,4.112 L35.288,12 L37.848,12 L37.848,8.496 C37.848,7.616 38.056,7.104 38.248,6.848 C38.44,6.592 38.856,6.272 39.432,6.272 C39.88,6.272 40.216,6.384 40.36,6.464 L40.472,6.464 L40.616,4.112 Z M53.832,7.248 C53.832,5.344 53.112,3.968 51.096,3.968 C49.928,3.968 49.144,4.448 48.584,5.408 C48.184,4.336 47.32,3.968 46.232,3.968 C45.224,3.968 44.456,4.576 44.056,5.232 L44.024,5.248 L44.04,4.112 L41.48,4.112 L41.48,12 L44.04,12 L44.04,7.952 C44.04,6.864 44.424,6.064 45.32,6.064 C46.152,6.064 46.376,6.736 46.376,7.712 L46.376,12 L48.936,12 L48.936,7.952 C48.936,6.864 49.32,6.064 50.216,6.064 C51.096,6.064 51.256,6.864 51.256,7.712 L51.256,12 L53.832,12 L53.832,7.248 Z M62.536,7.552 C62.536,6.224 62.2,5.456 61.592,4.88 C60.968,4.304 60.12,3.968 58.648,3.968 C57.176,3.968 55.944,4.432 55.272,4.768 L55.944,6.432 C56.344,6.176 57.352,5.728 58.36,5.728 C59.384,5.728 59.976,6.16 59.976,6.992 L59.976,7.168 L57.992,7.248 C56.536,7.312 54.92,7.904 54.92,9.664 C54.92,11.424 56.392,12.176 57.784,12.176 C59.064,12.176 59.704,11.504 60.04,11.168 L60.088,12 L62.536,12 L62.536,7.552 Z M59.992,9.824 C59.832,10.096 59.368,10.544 58.68,10.544 C57.976,10.544 57.48,10.176 57.48,9.568 C57.48,8.976 57.944,8.64 58.728,8.608 L59.992,8.528 L59.992,9.824 Z M68.824,4.128 L67.08,4.128 L67.08,1.984 L64.504,1.984 L64.504,4.128 L63.384,4.128 L63.384,6.064 L64.504,6.064 L64.504,9.12 C64.504,10.32 64.664,10.976 65.064,11.44 C65.464,11.904 66.072,12.176 66.984,12.176 C67.912,12.176 68.616,11.968 68.808,11.92 L68.68,9.92 C68.68,9.92 68.312,10.064 67.912,10.064 C67.576,10.064 67.416,10 67.304,9.872 C67.176,9.728 67.08,9.568 67.08,8.896 L67.08,6.064 L68.824,6.064 L68.824,4.128 Z M72.616,1.872 C72.616,1.088 72.024,0.544 71.16,0.544 C70.296,0.544 69.704,1.088 69.704,1.872 C69.704,2.672 70.296,3.2 71.16,3.2 C72.024,3.2 72.616,2.672 72.616,1.872 Z M72.44,4.112 L69.88,4.112 L69.88,12 L72.44,12 L72.44,4.112 Z M81.912,7.824 C81.912,5.52 80.296,3.968 77.96,3.968 C75.624,3.968 73.704,5.456 73.704,8.064 C73.704,10.672 75.48,12.176 77.912,12.176 C80.36,12.176 81.4,11.088 81.656,10.896 L80.648,9.568 C80.2,9.872 79.304,10.32 78.28,10.32 C77.24,10.32 76.376,9.808 76.264,8.672 L81.88,8.672 C81.88,8.672 81.912,8.208 81.912,7.824 Z M76.28,7.216 C76.312,6.464 76.856,5.632 77.912,5.632 C78.984,5.632 79.512,6.496 79.528,7.216 L76.28,7.216 Z M7.232,22.112 L5.456,27.104 L3.664,22.112 L0.992,22.112 L4.224,30 L6.624,30 L9.872,22.112 L7.232,22.112 Z M18.224,25.824 C18.224,23.52 16.608,21.968 14.272,21.968 C11.936,21.968 10.016,23.456 10.016,26.064 C10.016,28.672 11.792,30.176 14.224,30.176 C16.672,30.176 17.712,29.088 17.968,28.896 L16.96,27.568 C16.512,27.872 15.616,28.32 14.592,28.32 C13.552,28.32 12.688,27.808 12.576,26.672 L18.192,26.672 C18.192,26.672 18.224,26.208 18.224,25.824 Z M12.592,25.216 C12.624,24.464 13.168,23.632 14.224,23.632 C15.296,23.632 15.824,24.496 15.84,25.216 L12.592,25.216 Z M24.736,22.112 C24.736,22.112 24.464,21.968 23.936,21.968 C23.088,21.968 22.432,22.368 21.984,23.232 L21.952,23.232 L21.968,22.112 L19.408,22.112 L19.408,30 L21.968,30 L21.968,26.496 C21.968,25.616 22.176,25.104 22.368,24.848 C22.56,24.592 22.976,24.272 23.552,24.272 C24,24.272 24.336,24.384 24.48,24.464 L24.592,24.464 L24.736,22.112 Z M32.432,27.968 L28.304,27.968 L32.24,23.552 L32.24,22.128 L25.184,22.128 L25.184,24.064 L28.992,24.064 L25.008,28.528 L25.008,30 L32.432,30 L32.432,27.968 Z M40.608,25.552 C40.608,24.224 40.272,23.456 39.664,22.88 C39.04,22.304 38.192,21.968 36.72,21.968 C35.248,21.968 34.016,22.432 33.344,22.768 L34.016,24.432 C34.416,24.176 35.424,23.728 36.432,23.728 C37.456,23.728 38.048,24.16 38.048,24.992 L38.048,25.168 L36.064,25.248 C34.608,25.312 32.992,25.904 32.992,27.664 C32.992,29.424 34.464,30.176 35.856,30.176 C37.136,30.176 37.776,29.504 38.112,29.168 L38.16,30 L40.608,30 L40.608,25.552 Z M38.064,27.824 C37.904,28.096 37.44,28.544 36.752,28.544 C36.048,28.544 35.552,28.176 35.552,27.568 C35.552,26.976 36.016,26.64 36.8,26.608 L38.064,26.528 L38.064,27.824 Z M54.544,25.248 C54.544,23.344 53.824,21.968 51.808,21.968 C50.64,21.968 49.856,22.448 49.296,23.408 C48.896,22.336 48.032,21.968 46.944,21.968 C45.936,21.968 45.168,22.576 44.768,23.232 L44.736,23.248 L44.752,22.112 L42.192,22.112 L42.192,30 L44.752,30 L44.752,25.952 C44.752,24.864 45.136,24.064 46.032,24.064 C46.864,24.064 47.088,24.736 47.088,25.712 L47.088,30 L49.648,30 L49.648,25.952 C49.648,24.864 50.032,24.064 50.928,24.064 C51.808,24.064 51.968,24.864 51.968,25.712 L51.968,30 L54.544,30 L54.544,25.248 Z M63.92,25.824 C63.92,23.52 62.304,21.968 59.968,21.968 C57.632,21.968 55.712,23.456 55.712,26.064 C55.712,28.672 57.488,30.176 59.92,30.176 C62.368,30.176 63.408,29.088 63.664,28.896 L62.656,27.568 C62.208,27.872 61.312,28.32 60.288,28.32 C59.248,28.32 58.384,27.808 58.272,26.672 L63.888,26.672 C63.888,26.672 63.92,26.208 63.92,25.824 Z M58.288,25.216 C58.32,24.464 58.864,23.632 59.92,23.632 C60.992,23.632 61.52,24.496 61.536,25.216 L58.288,25.216 Z M67.728,18.96 L65.168,18.96 L65.168,30 L67.728,30 L67.728,18.96 Z M77.216,25.824 C77.216,23.52 75.6,21.968 73.264,21.968 C70.928,21.968 69.008,23.456 69.008,26.064 C69.008,28.672 70.784,30.176 73.216,30.176 C75.664,30.176 76.704,29.088 76.96,28.896 L75.952,27.568 C75.504,27.872 74.608,28.32 73.584,28.32 C72.544,28.32 71.68,27.808 71.568,26.672 L77.184,26.672 C77.184,26.672 77.216,26.208 77.216,25.824 Z M71.584,25.216 C71.616,24.464 72.16,23.632 73.216,23.632 C74.288,23.632 74.816,24.496 74.832,25.216 L71.584,25.216 Z M86.144,25.344 C86.144,23.44 85.552,21.968 83.264,21.968 C82.128,21.968 81.408,22.544 80.976,23.248 L80.944,23.248 L80.96,22.112 L78.4,22.112 L78.4,30 L80.96,30 L80.96,26.096 C80.96,24.96 81.264,24.064 82.368,24.064 C83.424,24.064 83.584,24.848 83.584,25.888 L83.584,30 L86.144,30 L86.144,25.344 Z" id="Informatie-verzamele"></path>
                </g>
                <g id="Group-2-Copy-2" transform="translate(274.000000, 652.000000)" fill="#262830">
                    <path d="M7.736,0.944 L5.048,0.944 L0.888,12 L3.576,12 L4.36,9.776 L8.296,9.776 L9.08,12 L11.896,12 L7.736,0.944 Z M4.952,7.76 L6.328,3.792 L7.704,7.76 L4.952,7.76 Z M20.424,7.344 C20.424,5.44 19.832,3.968 17.544,3.968 C16.408,3.968 15.688,4.544 15.256,5.248 L15.224,5.248 L15.24,4.112 L12.68,4.112 L12.68,12 L15.24,12 L15.24,8.096 C15.24,6.96 15.544,6.064 16.648,6.064 C17.704,6.064 17.864,6.848 17.864,7.888 L17.864,12 L20.424,12 L20.424,7.344 Z M29.144,7.552 C29.144,6.224 28.808,5.456 28.2,4.88 C27.576,4.304 26.728,3.968 25.256,3.968 C23.784,3.968 22.552,4.432 21.88,4.768 L22.552,6.432 C22.952,6.176 23.96,5.728 24.968,5.728 C25.992,5.728 26.584,6.16 26.584,6.992 L26.584,7.168 L24.6,7.248 C23.144,7.312 21.528,7.904 21.528,9.664 C21.528,11.424 23,12.176 24.392,12.176 C25.672,12.176 26.312,11.504 26.648,11.168 L26.696,12 L29.144,12 L29.144,7.552 Z M26.6,9.824 C26.44,10.096 25.976,10.544 25.288,10.544 C24.584,10.544 24.088,10.176 24.088,9.568 C24.088,8.976 24.552,8.64 25.336,8.608 L26.6,8.528 L26.6,9.824 Z M33.352,0.96 L30.792,0.96 L30.792,12 L33.352,12 L33.352,0.96 Z M40.424,4.112 L38.648,9.184 L36.856,4.112 L34.184,4.112 L37.304,11.76 L37.016,12.448 C36.808,12.96 36.536,12.96 36.248,12.96 C35.864,12.96 35.304,12.752 35.304,12.752 L34.792,14.64 C34.792,14.64 35.64,15.024 36.984,15.024 C38.328,15.024 38.968,14.16 39.544,12.752 L43.064,4.112 L40.424,4.112 Z M49.496,9.568 C49.496,8.736 49.112,8.224 48.856,7.968 C48.584,7.712 48.184,7.504 47.832,7.376 C47.496,7.248 47.256,7.168 46.712,7.008 C46.168,6.848 45.56,6.656 45.56,6.24 C45.56,5.824 45.896,5.664 46.504,5.664 C47.144,5.664 48.04,6.08 48.488,6.432 L49.32,4.928 C48.872,4.56 47.944,3.952 46.296,3.952 C44.648,3.952 43.304,4.896 43.304,6.432 C43.304,7.84 44.28,8.336 44.648,8.496 C45.016,8.656 45.464,8.784 45.768,8.864 C46.056,8.96 47.208,9.216 47.208,9.728 C47.208,10.24 46.76,10.4 46.12,10.4 C45.48,10.4 44.424,9.984 43.784,9.44 L42.824,10.96 C43.72,11.808 44.968,12.176 46.152,12.176 C47.208,12.176 47.992,11.936 48.568,11.488 C49.144,11.024 49.496,10.384 49.496,9.568 Z M58.44,7.824 C58.44,5.52 56.824,3.968 54.488,3.968 C52.152,3.968 50.232,5.456 50.232,8.064 C50.232,10.672 52.008,12.176 54.44,12.176 C56.888,12.176 57.928,11.088 58.184,10.896 L57.176,9.568 C56.728,9.872 55.832,10.32 54.808,10.32 C53.768,10.32 52.904,9.808 52.792,8.672 L58.408,8.672 C58.408,8.672 58.44,8.208 58.44,7.824 Z M52.808,7.216 C52.84,6.464 53.384,5.632 54.44,5.632 C55.512,5.632 56.04,6.496 56.056,7.216 L52.808,7.216 Z M64.952,4.112 C64.952,4.112 64.68,3.968 64.152,3.968 C63.304,3.968 62.648,4.368 62.2,5.232 L62.168,5.232 L62.184,4.112 L59.624,4.112 L59.624,12 L62.184,12 L62.184,8.496 C62.184,7.616 62.392,7.104 62.584,6.848 C62.776,6.592 63.192,6.272 63.768,6.272 C64.216,6.272 64.552,6.384 64.696,6.464 L64.808,6.464 L64.952,4.112 Z M73.32,7.824 C73.32,5.52 71.704,3.968 69.368,3.968 C67.032,3.968 65.112,5.456 65.112,8.064 C65.112,10.672 66.888,12.176 69.32,12.176 C71.768,12.176 72.808,11.088 73.064,10.896 L72.056,9.568 C71.608,9.872 70.712,10.32 69.688,10.32 C68.648,10.32 67.784,9.808 67.672,8.672 L73.288,8.672 C73.288,8.672 73.32,8.208 73.32,7.824 Z M67.688,7.216 C67.72,6.464 68.264,5.632 69.32,5.632 C70.392,5.632 70.92,6.496 70.936,7.216 L67.688,7.216 Z M82.248,7.344 C82.248,5.44 81.656,3.968 79.368,3.968 C78.232,3.968 77.512,4.544 77.08,5.248 L77.048,5.248 L77.064,4.112 L74.504,4.112 L74.504,12 L77.064,12 L77.064,8.096 C77.064,6.96 77.368,6.064 78.472,6.064 C79.528,6.064 79.688,6.848 79.688,7.888 L79.688,12 L82.248,12 L82.248,7.344 Z" id="Analyseren"></path>
                </g>
                <g id="Group-2-Copy-3" transform="translate(0.000000, 447.000000)">
                    <g id="cog" transform="translate(22.000000, 0.000000)" fill="#F41A6D" stroke="#FFFFFF">
                        <g id="Layer_1">
                            <path d="M42,30 C45.3135,30 48,27.3135 48,24 C48,20.6865 45.3135,18 42,18 L40.9755,18 C40.7625,17.398 40.519,16.8105 40.2455,16.2395 L40.9705,15.515 C43.3135,13.1715 43.3135,9.373 40.9705,7.0295 C38.627,4.6865 34.8285,4.6865 32.485,7.0295 L31.7605,7.7545 C31.189,7.481 30.602,7.2375 30,7.0245 L30,6 C30,2.6865 27.3135,0 24,0 C20.6865,0 18,2.6865 18,6 L18,7.0245 C17.398,7.2375 16.8105,7.481 16.2395,7.7545 L15.515,7.0295 C13.1715,4.6865 9.373,4.6865 7.0295,7.0295 C4.6865,9.373 4.6865,13.1715 7.0295,15.515 L7.7545,16.2395 C7.481,16.811 7.2375,17.398 7.0245,18 L6,18 C2.6865,18 0,20.6865 0,24 C0,27.3135 2.6865,30 6,30 L7.0245,30 C7.2375,30.602 7.481,31.1895 7.7545,31.7605 L7.0295,32.485 C4.6865,34.8285 4.6865,38.627 7.0295,40.9705 C9.373,43.3135 13.1715,43.3135 15.515,40.9705 L16.2395,40.2455 C16.811,40.519 17.398,40.7625 18,40.9755 L18,42 C18,45.3135 20.6865,48 24,48 C27.3135,48 30,45.3135 30,42 L30,40.9755 C30.602,40.7625 31.1895,40.519 31.7605,40.2455 L32.485,40.9705 C34.8285,43.3135 38.627,43.3135 40.9705,40.9705 C43.3135,38.627 43.3135,34.8285 40.9705,32.485 L40.2455,31.7605 C40.519,31.189 40.7625,30.602 40.9755,30 L42,30 Z M37.8585,26 C37.519,28.372 36.585,30.552 35.213,32.3845 L38.0635,35.2355 L38.142,35.3135 C38.923,36.0945 38.923,37.3615 38.142,38.142 C37.361,38.9225 36.0945,38.923 35.3135,38.142 L35.2355,38.0635 L32.3845,35.213 C30.552,36.585 28.372,37.519 26,37.8585 L26,42 C26,43.1045 25.1045,44 24,44 C22.8955,44 22,43.1045 22,42 L22,37.8585 C19.628,37.519 17.448,36.585 15.6155,35.213 L12.7645,38.0635 L12.6865,38.142 C11.9055,38.923 10.6385,38.923 9.858,38.142 C9.0775,37.361 9.077,36.0945 9.858,35.3135 L9.9365,35.2355 L12.787,32.3845 C11.415,30.552 10.481,28.372 10.1415,26 L6,26 C4.8955,26 4,25.1045 4,24 C4,22.8955 4.8955,22 6,22 L10.1415,22 C10.481,19.628 11.415,17.448 12.787,15.6155 L9.9365,12.7645 L9.858,12.6865 C9.077,11.9055 9.077,10.6385 9.858,9.858 C10.639,9.0775 11.9055,9.077 12.6865,9.858 L12.7645,9.9365 L15.6155,12.787 C17.448,11.415 19.6275,10.481 22,10.1415 L22,6 C22,4.8955 22.8955,4 24,4 C25.1045,4 26,4.8955 26,6 L26,10.1415 C28.372,10.481 30.552,11.415 32.3845,12.787 L35.2355,9.9365 L35.3135,9.858 C36.0945,9.077 37.3615,9.077 38.142,9.858 C38.9225,10.639 38.923,11.9055 38.142,12.6865 L38.0635,12.7645 L35.213,15.6155 C36.585,17.448 37.519,19.6275 37.8585,22 L42,22 C43.1045,22 44,22.8955 44,24 C44,25.1045 43.1045,26 42,26 L37.8585,26 Z M24,16 C19.5815,16 16,19.5815 16,24 C16,28.4185 19.5815,32 24,32 C28.4185,32 32,28.4185 32,24 C32,19.5815 28.4185,16 24,16 Z M24,28 C21.791,28 20,26.209 20,24 C20,21.791 21.791,20 24,20 C26.209,20 28,21.791 28,24 C28,26.209 26.209,28 24,28 Z" id="Shape"></path>
                        </g>
                    </g>
                    <path d="M12.128,68.496 C12.128,64.928 9.552,62.784 6.272,62.784 C2.992,62.784 0.416,64.928 0.416,68.496 C0.416,72.064 2.992,74.192 6.272,74.192 C9.552,74.192 12.128,72.064 12.128,68.496 Z M9.504,68.432 C9.504,70.544 8.112,71.888 6.272,71.888 C4.432,71.888 3.04,70.544 3.04,68.432 C3.04,66.32 4.432,64.992 6.272,64.992 C8.112,64.992 9.504,66.336 9.504,68.432 Z M21.168,69.344 C21.168,67.44 20.576,65.968 18.288,65.968 C17.152,65.968 16.432,66.544 16,67.248 L15.968,67.248 L15.984,66.112 L13.424,66.112 L13.424,74 L15.984,74 L15.984,70.096 C15.984,68.96 16.288,68.064 17.392,68.064 C18.448,68.064 18.608,68.848 18.608,69.888 L18.608,74 L21.168,74 L21.168,69.344 Z M27.52,66.128 L25.776,66.128 L25.776,63.984 L23.2,63.984 L23.2,66.128 L22.08,66.128 L22.08,68.064 L23.2,68.064 L23.2,71.12 C23.2,72.32 23.36,72.976 23.76,73.44 C24.16,73.904 24.768,74.176 25.68,74.176 C26.608,74.176 27.312,73.968 27.504,73.92 L27.376,71.92 C27.376,71.92 27.008,72.064 26.608,72.064 C26.272,72.064 26.112,72 26,71.872 C25.872,71.728 25.776,71.568 25.776,70.896 L25.776,68.064 L27.52,68.064 L27.52,66.128 Z M38.24,66.112 L36.848,71.152 L35.328,66.112 L33.232,66.112 L31.712,71.152 L30.32,66.112 L27.728,66.112 L30.32,74 L32.736,74 L34.288,69.168 L35.824,74 L38.24,74 L40.832,66.112 L38.24,66.112 Z M44.48,63.872 C44.48,63.088 43.888,62.544 43.024,62.544 C42.16,62.544 41.568,63.088 41.568,63.872 C41.568,64.672 42.16,65.2 43.024,65.2 C43.888,65.2 44.48,64.672 44.48,63.872 Z M44.304,66.112 L41.744,66.112 L41.744,74 L44.304,74 L44.304,66.112 Z M51.12,69.072 L54,66.112 L51.056,66.112 L48.656,68.72 L48.656,62.96 L46.096,62.96 L46.096,74 L48.656,74 L48.656,71.616 L49.36,70.928 L51.296,74 L54.24,74 L51.12,69.072 Z M59.936,69.072 L62.816,66.112 L59.872,66.112 L57.472,68.72 L57.472,62.96 L54.912,62.96 L54.912,74 L57.472,74 L57.472,71.616 L58.176,70.928 L60.112,74 L63.056,74 L59.936,69.072 Z M71.008,69.824 C71.008,67.52 69.392,65.968 67.056,65.968 C64.72,65.968 62.8,67.456 62.8,70.064 C62.8,72.672 64.576,74.176 67.008,74.176 C69.456,74.176 70.496,73.088 70.752,72.896 L69.744,71.568 C69.296,71.872 68.4,72.32 67.376,72.32 C66.336,72.32 65.472,71.808 65.36,70.672 L70.976,70.672 C70.976,70.672 71.008,70.208 71.008,69.824 Z M65.376,69.216 C65.408,68.464 65.952,67.632 67.008,67.632 C68.08,67.632 68.608,68.496 68.624,69.216 L65.376,69.216 Z M74.816,62.96 L72.256,62.96 L72.256,74 L74.816,74 L74.816,62.96 Z M84.304,69.824 C84.304,67.52 82.688,65.968 80.352,65.968 C78.016,65.968 76.096,67.456 76.096,70.064 C76.096,72.672 77.872,74.176 80.304,74.176 C82.752,74.176 83.792,73.088 84.048,72.896 L83.04,71.568 C82.592,71.872 81.696,72.32 80.672,72.32 C79.632,72.32 78.768,71.808 78.656,70.672 L84.272,70.672 C84.272,70.672 84.304,70.208 84.304,69.824 Z M78.672,69.216 C78.704,68.464 79.248,67.632 80.304,67.632 C81.376,67.632 81.904,68.496 81.92,69.216 L78.672,69.216 Z M93.232,69.344 C93.232,67.44 92.64,65.968 90.352,65.968 C89.216,65.968 88.496,66.544 88.064,67.248 L88.032,67.248 L88.048,66.112 L85.488,66.112 L85.488,74 L88.048,74 L88.048,70.096 C88.048,68.96 88.352,68.064 89.456,68.064 C90.512,68.064 90.672,68.848 90.672,69.888 L90.672,74 L93.232,74 L93.232,69.344 Z" id="Ontwikkelen" fill="#262830"></path>
                </g>
                <g id="Group-2-Copy-4" transform="translate(23.000000, 211.000000)" fill="#262830">
                    <path d="M9.128,0.96 L0.84,0.96 L0.84,3.008 L3.688,3.008 L3.688,12 L6.28,12 L6.28,3.008 L9.128,3.008 L9.128,0.96 Z M15.784,7.824 C15.784,5.52 14.168,3.968 11.832,3.968 C9.496,3.968 7.576,5.456 7.576,8.064 C7.576,10.672 9.352,12.176 11.784,12.176 C14.232,12.176 15.272,11.088 15.528,10.896 L14.52,9.568 C14.072,9.872 13.176,10.32 12.152,10.32 C11.112,10.32 10.248,9.808 10.136,8.672 L15.752,8.672 C15.752,8.672 15.784,8.208 15.784,7.824 Z M10.152,7.216 C10.184,6.464 10.728,5.632 11.784,5.632 C12.856,5.632 13.384,6.496 13.4,7.216 L10.152,7.216 Z M22.984,9.568 C22.984,8.736 22.6,8.224 22.344,7.968 C22.072,7.712 21.672,7.504 21.32,7.376 C20.984,7.248 20.744,7.168 20.2,7.008 C19.656,6.848 19.048,6.656 19.048,6.24 C19.048,5.824 19.384,5.664 19.992,5.664 C20.632,5.664 21.528,6.08 21.976,6.432 L22.808,4.928 C22.36,4.56 21.432,3.952 19.784,3.952 C18.136,3.952 16.792,4.896 16.792,6.432 C16.792,7.84 17.768,8.336 18.136,8.496 C18.504,8.656 18.952,8.784 19.256,8.864 C19.544,8.96 20.696,9.216 20.696,9.728 C20.696,10.24 20.248,10.4 19.608,10.4 C18.968,10.4 17.912,9.984 17.272,9.44 L16.312,10.96 C17.208,11.808 18.456,12.176 19.64,12.176 C20.696,12.176 21.48,11.936 22.056,11.488 C22.632,11.024 22.984,10.384 22.984,9.568 Z M28.888,4.128 L27.144,4.128 L27.144,1.984 L24.568,1.984 L24.568,4.128 L23.448,4.128 L23.448,6.064 L24.568,6.064 L24.568,9.12 C24.568,10.32 24.728,10.976 25.128,11.44 C25.528,11.904 26.136,12.176 27.048,12.176 C27.976,12.176 28.68,11.968 28.872,11.92 L28.744,9.92 C28.744,9.92 28.376,10.064 27.976,10.064 C27.64,10.064 27.48,10 27.368,9.872 C27.24,9.728 27.144,9.568 27.144,8.896 L27.144,6.064 L28.888,6.064 L28.888,4.128 Z M37.496,7.824 C37.496,5.52 35.88,3.968 33.544,3.968 C31.208,3.968 29.288,5.456 29.288,8.064 C29.288,10.672 31.064,12.176 33.496,12.176 C35.944,12.176 36.984,11.088 37.24,10.896 L36.232,9.568 C35.784,9.872 34.888,10.32 33.864,10.32 C32.824,10.32 31.96,9.808 31.848,8.672 L37.464,8.672 C37.464,8.672 37.496,8.208 37.496,7.824 Z M31.864,7.216 C31.896,6.464 32.44,5.632 33.496,5.632 C34.568,5.632 35.096,6.496 35.112,7.216 L31.864,7.216 Z M46.424,7.344 C46.424,5.44 45.832,3.968 43.544,3.968 C42.408,3.968 41.688,4.544 41.256,5.248 L41.224,5.248 L41.24,4.112 L38.68,4.112 L38.68,12 L41.24,12 L41.24,8.096 C41.24,6.96 41.544,6.064 42.648,6.064 C43.704,6.064 43.864,6.848 43.864,7.888 L43.864,12 L46.424,12 L46.424,7.344 Z" id="Testen"></path>
                </g>
                <g id="1482178918_vector_462_15" transform="translate(561.000000, 442.000000)" fill="#F31369" stroke="#F31369">
                    <g id="Layer_1">
                        <g id="Group">
                            <path d="M19.3854839,49.6842742 C14.2927419,49.6842742 9.50403226,47.7004032 5.9016129,44.0987903 C2.29959677,40.4955645 0.316129032,35.7064516 0.316129032,30.6153226 C0.316129032,25.521371 2.29919355,20.7326613 5.90080645,17.1302419 L16.0564516,6.97459677 L23.9975806,14.9173387 L13.8439516,25.0717742 C12.3633065,26.5520161 11.5479839,28.5209677 11.5479839,30.6153226 C11.5479839,32.7076613 12.3633065,34.6758065 13.8439516,36.1564516 C15.3254032,37.6370968 17.2935484,38.4528226 19.3854839,38.4528226 C21.4806452,38.4528226 23.4483871,37.6379032 24.9258065,36.1572581 L35.0826613,26.0032258 L43.0241935,33.9423387 L32.8697581,44.0987903 C29.2669355,47.7004032 24.4778226,49.6842742 19.3854839,49.6842742 Z M16.0564516,9.54153226 L7.18346774,18.4133065 C3.925,21.6725806 2.13064516,26.0060484 2.13064516,30.6153226 C2.13064516,35.2225806 3.92540323,39.5556452 7.18467742,42.816129 C10.4443548,46.075 14.7774194,47.8697581 19.3854839,47.8697581 C23.9935484,47.8697581 28.3270161,46.075 31.5875,42.816129 L40.458871,33.9435484 L35.0830645,28.5693548 L26.2096774,37.4395161 C24.3899194,39.2625 21.9665323,40.2677419 19.3854839,40.2677419 C16.808871,40.2677419 14.3854839,39.2637097 12.5608871,37.4403226 C10.7375,35.6157258 9.73306452,33.1923387 9.73306452,30.6153226 C9.73306452,28.0366935 10.7370968,25.6120968 12.5608871,23.7891129 L21.4318548,14.9177419 L16.0564516,9.54153226 Z" id="Shape"></path>
                            <path d="M4.79233871,34.916129 C4.38427419,33.5298387 4.17782258,32.0826613 4.17782258,30.6153226 C4.17782258,26.5524194 5.76048387,22.7330645 8.63387097,19.8600806 L9.91693548,21.1431452 C7.38629032,23.6733871 5.99274194,27.0379032 5.99274194,30.6157258 C5.99274194,31.9096774 6.17459677,33.1846774 6.53346774,34.4044355 L4.79233871,34.916129 Z" id="Shape"></path>
                            <path d="M8.63387097,41.3693548 C7.52217742,40.2596774 6.59959677,39.0052419 5.89193548,37.641129 L7.50241935,36.8056452 C8.12419355,38.0044355 8.93629032,39.1076613 9.91572581,40.0850806 L8.63387097,41.3693548 Z" id="Shape"></path>
                            <path d="M22.7149194,16.2008065 L14.7737903,8.25806452 L22.7149194,0.316129032 L30.6580645,8.25806452 L22.7149194,16.2008065 Z M17.3395161,8.25806452 L22.7149194,13.6342742 L28.0915323,8.25806452 L22.7149194,2.88225806 L17.3395161,8.25806452 Z" id="Shape"></path>
                            <path d="M41.7419355,35.2262097 L33.8,27.2862903 L41.7415323,19.3423387 L49.6834677,27.283871 L41.7419355,35.2262097 Z M36.366129,27.2854839 L41.7419355,32.6604839 L47.1181452,27.283871 L41.7419355,21.908871 L36.366129,27.2854839 Z" id="Shape"></path>
                        </g>
                    </g>
                </g>
                <g id="1482179065_health-collection-09" transform="translate(297.000000, 586.000000)" fill="#F4196E" stroke="#F31369">
                    <g id="thenoune">
                        <path d="M33.84375,39.4047619 L33.84375,35.4166667 C33.84375,32.3214286 31.290625,29.7619048 28.203125,29.7619048 C25.115625,29.7619048 22.5625,32.3214286 22.5625,35.4166667 L22.5625,44.3452381 C22.5625,46.1309524 21.078125,47.6190476 19.296875,47.6190476 C17.515625,47.6190476 16.03125,46.1309524 16.03125,44.3452381 L16.03125,28.452381 C19.35625,28.1547619 22.621875,26.7857143 25.175,24.2261905 C30.6375,18.75 30.875,10.5952381 25.946875,4.4047619 C26.065625,4.04761905 26.125,3.69047619 26.125,3.27380952 C26.125,1.48809524 24.640625,0 22.859375,0 C21.078125,0 19.59375,1.48809524 19.59375,3.27380952 C19.59375,5.05952381 21.078125,6.54761905 22.859375,6.54761905 C23.39375,6.54761905 23.86875,6.42857143 24.34375,6.19047619 C28.203125,11.3690476 27.965625,18.0357143 23.5125,22.5 C18.7625,27.2619048 10.984375,27.3214286 6.29375,22.5595238 C1.840625,18.0952381 1.54375,11.3690476 5.4625,6.19047619 C5.878125,6.42857143 6.4125,6.54761905 6.946875,6.54761905 C8.728125,6.54761905 10.2125,5.05952381 10.2125,3.27380952 C10.2125,1.48809524 8.609375,1.05735526e-15 6.828125,1.05735526e-15 C5.046875,1.05735526e-15 3.5625,1.48809524 3.5625,3.27380952 C3.5625,3.69047619 3.621875,4.04761905 3.740625,4.4047619 C-1.128125,10.5357143 -0.83125,18.8690476 4.5125,24.2857143 C7.065625,26.8452381 10.271875,28.2142857 13.65625,28.452381 L13.65625,44.3452381 C13.65625,47.4404762 16.209375,50 19.296875,50 C22.384375,50 24.9375,47.4404762 24.9375,44.3452381 L24.9375,35.4166667 C24.9375,33.6309524 26.421875,32.1428571 28.203125,32.1428571 C29.984375,32.1428571 31.46875,33.6309524 31.46875,35.4166667 L31.46875,39.4047619 C29.09375,39.9404762 27.3125,42.0833333 27.3125,44.6428571 C27.3125,47.6190476 29.6875,50 32.65625,50 C35.625,50 38,47.6190476 38,44.6428571 C38,42.0833333 36.21875,39.9404762 33.84375,39.4047619 Z M21.96875,3.27380952 C21.96875,2.79761905 22.384375,2.38095238 22.859375,2.38095238 C23.334375,2.38095238 23.75,2.79761905 23.75,3.27380952 C23.75,3.75 23.334375,4.16666667 22.859375,4.16666667 C22.384375,4.16666667 21.96875,3.75 21.96875,3.27380952 Z M6.828125,2.38095238 C7.303125,2.38095238 7.71875,2.79761905 7.71875,3.27380952 C7.71875,3.75 7.303125,4.16666667 6.828125,4.16666667 C6.353125,4.16666667 5.9375,3.75 5.9375,3.27380952 C5.9375,2.79761905 6.353125,2.38095238 6.828125,2.38095238 Z M32.65625,47.6190476 C30.99375,47.6190476 29.6875,46.3095238 29.6875,44.6428571 C29.6875,42.9761905 30.99375,41.6666667 32.65625,41.6666667 C34.31875,41.6666667 35.625,42.9761905 35.625,44.6428571 C35.625,46.3095238 34.31875,47.6190476 32.65625,47.6190476 Z" id="Shape"></path>
                    </g>
                </g>
                <g id="1482179397_iconsLineSet2-91" transform="translate(22.000000, 148.000000)" stroke-width="0.899999976" stroke="#F31A6E" fill="#F31369">
                    <g id="Group">
                        <g id="Layer_2">
                            <path d="M25.4,8.19094595 C25.1046637,8.19140656 24.8250908,8.05865417 24.64,7.83006757 L21.8733333,4.41662162 C21.7108672,4.2169545 21.6350297,3.9613028 21.6625432,3.70603841 C21.6900567,3.45077402 21.8186615,3.21686121 22.02,3.05587838 L25.4566667,0.307905405 C25.8779694,0.0158435349 26.4552665,0.0993152574 26.7752483,0.498559891 C27.0952301,0.897804524 27.0476912,1.47531773 26.6666667,1.81763514 L24,3.97297297 L26.1566667,6.62162162 C26.3912355,6.91131127 26.4377859,7.30893376 26.2763997,7.64435424 C26.1150136,7.97977472 25.7742831,8.19356824 25.4,8.19425676 L25.4,8.19094595 Z" id="Shape"></path>
                            <path d="M24.1066667,48.8179054 C23.7271168,48.8184447 23.3818706,48.5997963 23.2222271,48.2577796 C23.0625835,47.915763 23.1176652,47.5127696 23.3633333,47.2254054 L25.59,44.6231081 L22.97,42.4114865 C22.6966184,42.1903735 22.5649901,41.8397119 22.6259037,41.4948041 C22.6868172,41.1498962 22.9307489,40.8646684 23.2635779,40.7491753 C23.5964069,40.6336822 23.9660955,40.7059811 24.23,40.9381757 L27.5933333,43.7755405 C27.7907258,43.9413398 27.9136042,44.1783227 27.9348655,44.4342181 C27.9561267,44.6901135 27.874024,44.943898 27.7066667,45.1395946 L24.85,48.4802027 C24.6641222,48.6956614 24.392333,48.8191376 24.1066667,48.8179054 L24.1066667,48.8179054 Z" id="Shape"></path>
                            <path d="M15.7866667,21.4143243 C15.2491095,21.4143243 14.8133333,20.9814926 14.8133333,20.4475676 L14.8133333,12.8889865 C14.8494708,11.8240679 14.2981011,10.8243156 13.375136,10.2812243 C12.4521709,9.73813297 11.3044958,9.73813297 10.3815307,10.2812243 C9.45856558,10.8243156 8.90719586,11.8240679 8.94333333,12.8889865 L8.94333333,20.4475676 C8.94333331,20.9814926 8.50755714,21.4143243 7.97,21.4143243 C7.43244286,21.4143243 6.99666669,20.9814926 6.99666667,20.4475676 L6.99666667,12.8889865 C6.99666663,11.1561277 7.9274247,9.55490004 9.4383333,8.68847062 C10.9492419,7.82204119 12.8107581,7.82204119 14.3216667,8.68847062 C15.8325753,9.55490004 16.7633334,11.1561277 16.7633333,12.8889865 L16.7633333,20.4475676 C16.7633349,20.7045421 16.6603301,20.9509435 16.4770731,21.132341 C16.2938161,21.3137386 16.0453878,21.4152044 15.7866667,21.4143243 L15.7866667,21.4143243 Z" id="Shape"></path>
                            <path d="M41.06,42.2194595 L36.81,42.2194595 C36.2724428,42.2194595 35.8366667,41.7866277 35.8366667,41.2527027 L35.8133333,28.7312162 C35.8124473,28.4742432 35.9146033,28.2274935 36.0972349,28.0454747 C36.2798664,27.8634559 36.527944,27.7611471 36.7866667,27.7611486 L39.12,27.7611486 C40.6671504,27.7597177 42.086001,28.61525 42.7985907,29.9792491 C43.5111803,31.3432482 43.3985837,32.9880743 42.5066667,34.2437162 C44.3858105,34.9380449 45.4948094,36.869163 45.1399744,38.8291386 C44.7851394,40.7891141 43.0682909,42.2155294 41.0633333,42.2161486 L41.06,42.2194595 Z M37.78,40.2859459 L41.06,40.2859459 C41.8646004,40.3170947 42.6218735,39.9085038 43.0335003,39.2211331 C43.4451271,38.5337624 43.4451271,37.6777917 43.0335003,36.990421 C42.6218735,36.3030502 41.8646004,35.8944594 41.06,35.9256081 L39.89,35.9256081 C39.6350931,35.9739267 39.376174,35.9983135 39.1166667,35.9984459 L37.7833333,35.9554054 L37.78,40.2859459 Z M37.78,33.9954054 L39.7066667,33.9954054 C40.7920859,33.724739 41.499974,32.6878753 41.3515101,31.5861568 C41.2030462,30.4844384 40.2455446,29.6689745 39.1266667,29.6913514 L37.77,29.6913514 L37.78,33.9954054 Z" id="Shape"></path>
                            <path d="M15.3333333,17.8783784 L8.3,17.8783784 C7.76244284,17.8783784 7.32666667,17.4455466 7.32666667,16.9116216 C7.32666667,16.3776966 7.76244284,15.9448649 8.3,15.9448649 L15.3333333,15.9448649 C15.8708905,15.9448649 16.3066667,16.3776966 16.3066667,16.9116216 C16.3066667,17.4455466 15.8708905,17.8783784 15.3333333,17.8783784 Z" id="Shape"></path>
                            <path d="M11.8766667,26.2017568 C5.49821178,26.2017565 0.327280632,21.0662578 0.326667201,14.7309006 C0.32605377,8.39554339 5.49599032,3.25905689 11.8744451,3.25783805 C18.2528999,3.25661921 23.4248258,8.39112953 23.4266667,14.7264865 C23.4211559,21.0605423 18.2538094,26.1944555 11.8766667,26.2017568 L11.8766667,26.2017568 Z M11.8766667,5.19135135 C7.99217762,5.19135158 4.49024311,7.51567772 3.0040251,11.0803572 C1.51780709,14.6450366 2.34003865,18.7479519 5.08726394,21.4756678 C7.83448923,24.2033836 11.9656007,25.0186351 15.5540135,23.5412217 C19.1424263,22.0638082 21.4813483,18.5847288 21.48,14.7264865 C21.4744881,9.46081758 17.1781564,5.19351516 11.8766667,5.18804054 L11.8766667,5.19135135 Z" id="Shape"></path>
                            <path d="M39.2333333,46.3513514 C32.8544445,46.3513514 27.6833333,41.2151802 27.6833333,34.8793919 C27.6833333,28.5436036 32.8544445,23.4074324 39.2333333,23.4074324 C45.6122222,23.4074324 50.7833333,28.5436036 50.7833333,34.8793919 C50.7759858,41.2121548 45.6091763,46.3440534 39.2333333,46.3513514 L39.2333333,46.3513514 Z M39.2333333,25.3409459 C33.9295588,25.3409459 29.63,29.6114537 29.63,34.8793919 C29.63,40.1473301 33.9295588,44.4178378 39.2333333,44.4178378 C44.5371079,44.4178378 48.8366667,40.1473301 48.8366667,34.8793919 C48.8348304,29.6111373 44.5374239,25.3398042 39.2333333,25.3343243 L39.2333333,25.3409459 Z" id="Shape"></path>
                            <path d="M46.0233333,21.7884459 C45.5541011,21.7882069 45.1518355,21.4554826 45.0666667,20.9971622 C43.2218622,11.1355379 34.1809774,4.24712155 24.1133333,5.03243243 C23.5766967,5.07448816 23.1073419,4.67649048 23.065,4.14347973 C23.0226582,3.61046898 23.4233633,3.14428548 23.96,3.10222973 C35.0239912,2.23964747 44.9587643,9.81146228 46.9833333,20.649527 C47.0310314,20.9020207 46.9755871,21.1629878 46.8292417,21.3748108 C46.6828963,21.5866338 46.4576859,21.7318916 46.2033333,21.7785135 C46.1437568,21.7872003 46.083512,21.7905246 46.0233333,21.7884459 L46.0233333,21.7884459 Z" id="Shape"></path>
                            <path d="M23.3933333,45.9077027 C12.9395829,45.9117764 3.97017443,38.5091167 2.06,28.3008108 C1.99628764,27.9566047 2.12229594,27.6047847 2.3905588,27.377878 C2.65882167,27.1509712 3.02858358,27.0834502 3.3605588,27.2007496 C3.69253403,27.3180489 3.93628764,27.602348 4,27.9465541 C5.84480443,37.8081784 14.8856893,44.6965947 24.9533333,43.9112838 C25.48997,43.8692281 25.9593248,44.2672257 26.0016666,44.8002365 C26.0440085,45.3332472 25.6433033,45.7994307 25.1066667,45.8414865 C24.5311111,45.8856306 23.96,45.9077027 23.3933333,45.9077027 Z" id="Shape"></path>
                        </g>
                    </g>
                </g>
            </g>
        </g>
    </g>
</svg>