<?xml version="1.0" encoding="UTF-8" standalone="no"?>
<svg width="450px" height="444px" viewBox="0 0 450 444" version="1.1" xmlns="http://www.w3.org/2000/svg" xmlns:xlink="http://www.w3.org/1999/xlink">
    <defs></defs>
    <g id="Page-1" stroke="none" stroke-width="1" fill="none" fill-rule="evenodd">
        <g id="Artboard-3-Copy">
            <g>
                <g id="life-cycle-circle">
                    <circle id="Oval-2" stroke="#F41A6D" stroke-width="3" stroke-dasharray="20,20,20,20" cx="223.5" cy="222.5" r="202.5"></circle>
                    <rect id="Rectangle" fill="#FFFFFF" x="0" y="216" width="50" height="48"></rect>
                    <rect id="Rectangle-2" fill="#FFFFFF" x="185" y="0" width="42" height="40"></rect>
                    <rect id="Rectangle-3" fill="#FFFFFF" x="408" y="186" width="42" height="48"></rect>
                    <rect id="Rectangle-4" fill="#FFFFFF" x="223" y="404" width="30" height="40"></rect>
                    <path d="M201.00025,34.4909737 C200.48825,34.4909737 199.97675,34.2920439 199.58575,33.8952018 C198.80475,33.1005 198.80475,31.8117807 199.58575,31.0170789 L210.17175,20.2453596 L199.58575,9.47414912 C198.80475,8.67944737 198.80475,7.39072807 199.58575,6.59602632 C200.36675,5.80132456 201.63325,5.80132456 202.41425,6.59602632 L214.41425,18.8065526 C215.19525,19.6012544 215.19525,20.8899737 214.41425,21.6846754 L202.41425,33.8952018 C202.02375,34.2920439 201.51225,34.4909737 201.00025,34.4909737 Z" id="Shape-Copy" fill="#F41A6D" transform="translate(207.000000, 20.245487) rotate(-3.000000) translate(-207.000000, -20.245487) "></path>
                    <path d="M15.7348362,256.890138 C15.2228362,256.890138 14.7113362,256.691209 14.3203362,256.294366 C13.5393362,255.499665 13.5393362,254.210945 14.3203362,253.416244 L24.9063362,242.644524 L14.3203362,231.873314 C13.5393362,231.078612 13.5393362,229.789893 14.3203362,228.995191 C15.1013362,228.200489 16.3678362,228.200489 17.1488362,228.995191 L29.1488362,241.205717 C29.9298362,242.000419 29.9298362,243.289138 29.1488362,244.08384 L17.1488362,256.294366 C16.7583362,256.691209 16.2468362,256.890138 15.7348362,256.890138 Z" id="Shape-Copy" fill="#F41A6D" transform="translate(21.734586, 242.644652) rotate(266.000000) translate(-21.734586, -242.644652) "></path>
                    <path d="M231.0005,438.999747 C230.4885,438.999747 229.977,438.800816 229.586,438.403975 C228.805,437.609272 228.805,436.320554 229.586,435.525852 L240.172,424.754133 L229.586,413.982921 C228.805,413.18822 228.805,411.899501 229.586,411.104799 C230.367,410.310096 231.6335,410.310096 232.4145,411.104799 L244.4145,423.315325 C245.1955,424.110027 245.1955,425.398747 244.4145,426.193448 L232.4145,438.403975 C232.024,438.800816 231.5125,438.999747 231.0005,438.999747 Z" id="Shape" fill="#F41A6D" transform="translate(237.000250, 424.754259) rotate(180.000000) translate(-237.000250, -424.754259) "></path>
                    <path d="M419.734838,221.890139 C419.222838,221.890139 418.711338,221.69121 418.320338,221.294367 C417.539338,220.499666 417.539338,219.210946 418.320338,218.416245 L428.906338,207.644525 L418.320338,196.873315 C417.539338,196.078613 417.539338,194.789894 418.320338,193.995192 C419.101338,193.20049 420.367838,193.20049 421.148838,193.995192 L433.148838,206.205718 C433.929838,207.00042 433.929838,208.289139 433.148838,209.083841 L421.148838,221.294367 C420.758338,221.69121 420.246838,221.890139 419.734838,221.890139 Z" id="Shape-Copy" fill="#F41A6D" transform="translate(425.734588, 207.644652) rotate(90.000000) translate(-425.734588, -207.644652) "></path>
                </g>
            </g>
        </g>
    </g>
</svg>